<?xml version="1.0" encoding="utf-8"?>
<!-- Generator: Adobe Illustrator 19.0.0, SVG Export Plug-In . SVG Version: 6.00 Build 0)  -->
<!DOCTYPE svg PUBLIC "-//W3C//DTD SVG 1.1//EN" "http://www.w3.org/Graphics/SVG/1.1/DTD/svg11.dtd">
<svg version="1.1" id="Layer_1" xmlns="http://www.w3.org/2000/svg" xmlns:xlink="http://www.w3.org/1999/xlink" x="0px" y="0px"
	 viewBox="0 0 63.8 71.6" style="enable-background:new 0 0 63.8 71.6;" xml:space="preserve">
<style type="text/css">
	.st0{fill:#FFFFFF;}
</style>
<g id="XMLID_2_">
	<path id="XMLID_6_" class="st0" d="M35,13.9l7.6,15l1.1,7.1l-0.1,7.5L43.3,47l0.2,3.2l-1.1,0.4l-2.5-2.4l-0.3,12.4l-0.9,5.3
		L37,66.5l-1.2-0.6L35.2,64l-0.3-10.2c0,0-3.2,1.6-4.6-2.6c0,0-3.3,1.2-4.6-4c0,0-2.6,0.4-4.2-3.5l-1.3-4.3L21,26.8l1.2-3.6L22,19.8
		l0.3-2.3C22.3,17.5,28.9,11.4,35,13.9z"/>
	<path id="XMLID_3_" class="st0" d="M20.1,42.2c0.2,0.3,0.4,0.8,0.6,1.2c0.8,1.7,1.9,4.3,4.4,4.2c0.1,0.3,0.2,0.5,0.2,0.7
		c0.3,1.5,1.6,3.8,4.6,3.5c0.4,1,1,2,2,2.6c0.7,0.4,1.5,0.6,2.4,0.4c0.1,1.6,0.2,3.2,0.2,4.6c0.1,2.6,0.2,4.7,0.3,5.4
		c0.1,1.1,0.8,1.9,1.8,2.1c1,0.2,2.1-0.2,2.8-1.2c0.6-0.8,0.9-5.4,1.1-15.9c0.9,1,1.8,1.3,2.1,1.3c0.6,0.2,1,0,1.2-0.2
		c0.8-0.6,0.6-2.1,0.4-3.8c-0.1-0.8-0.2-1.6-0.1-2.1c0.1-1,0.2-9.5,0.2-9.8c0.3-6.8-8.1-20.7-8.4-21.3l0,0C35.7,13.7,34.4,7,31.9,7
		c-1.1,0-2.5,0.2-4.2,0.8c-4.3,1.3-5.9,3-6.5,4.3c-0.4,0.8-0.5,1.6-0.2,2.4c0.1,0.3,0.9,8,0.2,9.6c-0.8,1.8-1.1,5-1.2,7.3
		c0,0.2,0,0.5-0.1,0.9C19.5,36.6,19.3,40.8,20.1,42.2z M21,32.3c0-0.4,0.1-0.7,0.1-0.9c0.1-1.3,0.3-5.1,1.1-6.9
		c0.9-2,0.3-4.6,0.3-4.7l0-0.1c-0.2-0.4-0.1-1,0.2-1.5c0.4-0.8,1.7-2.4,5.8-3.6c4.9-1.5,6.3-0.1,6.4,0c0.4,0.7,8.5,14.3,8.2,20.6
		c0,2.4-0.1,9-0.2,9.7c-0.1,0.6,0,1.5,0.1,2.4c0.1,0.9,0.3,2.5,0.1,2.7c0,0,0,0-0.1,0l-0.1,0c-0.1,0-1.5-0.2-2.2-2.7
		c0-1.2,0-2.6,0.1-3.9c0-1.2,0-2,0-2.4c0.1-2.4,0.9-3.9,0.9-3.9l-0.5-0.3l-0.5-0.3c0,0.1-0.9,1.8-1,4.4c0,0.4,0,1.3,0,2.4
		c0,1.4,0,2.8-0.1,4l0,0c0,0,0,0,0,0.1c-0.2,10.9-0.5,16.9-0.9,17.7c-0.4,0.5-1,0.8-1.5,0.7c-0.5-0.1-0.8-0.5-0.8-1.1
		c-0.1-0.6-0.2-2.8-0.3-5.3c-0.4-7.3-0.7-13.5-1.3-15l-1.1,0.4c0.4,0.9,0.7,4.9,0.9,8.9c-0.6,0.1-1.2,0-1.7-0.3
		c-1.1-0.7-1.8-2.4-2.1-3.7c-0.3-1.4-0.6-5.1-0.6-5.1l-1.2,0.1c0,0.2,0.3,3.8,0.6,5.3c0,0.2,0.1,0.5,0.2,0.8c-2.3,0-2.9-2.3-3-2.6
		c-0.3-1.2-2-5.8-2-6l-1.1,0.4c0.4,1,1,2.6,1.4,3.9c-1.4-0.2-2.1-1.6-2.9-3.5c-0.2-0.5-0.4-1-0.7-1.4C20.4,40.4,20.9,34.3,21,32.3z"
		/>
</g>
</svg>
