<?xml version="1.0" encoding="utf-8"?>
<!-- Generator: Adobe Illustrator 19.0.0, SVG Export Plug-In . SVG Version: 6.00 Build 0)  -->
<!DOCTYPE svg PUBLIC "-//W3C//DTD SVG 1.1//EN" "http://www.w3.org/Graphics/SVG/1.1/DTD/svg11.dtd">
<svg version="1.1" id="Layer_1" xmlns="http://www.w3.org/2000/svg" xmlns:xlink="http://www.w3.org/1999/xlink" x="0px" y="0px"
	 viewBox="0 0 1826.9 538.5" enable-background="new 0 0 1826.9 538.5" xml:space="preserve">
<g id="XMLID_40_">
	<path id="XMLID_41_" fill="#FFFFFF" d="M359.5,124.8c0,18.7-6.6,35.8-18.7,35.8c-12.1,0-16-6.1-16-12.1c0-12.7,9.9-14.9,9.9-36.3
		c0-15.4-7.1-28.6-19.2-28.6c-14.9,0-27,12.1-27,36.3c0,45.1,31.9,96.3,31.9,200.8c0,106.7-68.8,212.9-187,212.9
		c-88.6,0-126.5-75.4-126.5-152.4c0-142.5,94.6-195.8,139.7-195.8c50.6,0,77.6,35.2,77.6,89.7c0,70.4-49.5,166.7-112.2,166.7
		c-3.3,0-6.6-1.1-9.9-2.2c-2.2-0.6-3.9-2.8-3.9-5c0-5,5.5-7.1,9.4-8.8c52.8-26.4,79.2-108.4,79.2-161.7c0-49-16-62.2-34.7-62.2
		c-59.4,0-128.7,67.7-128.7,187.6c0,63.2,36.3,134.8,105.1,134.8c102.3,0,152.4-100.1,152.4-206.3c0-66-24.2-136.4-24.2-181.5
		c0-34.7,20.4-62.2,54.5-62.2C346.8,74.2,359.5,100.6,359.5,124.8z"/>
	<path id="XMLID_43_" fill="#FFFFFF" d="M379.8,210c-2.2,0-4.4-1.1-5-2.8c-1.1-1.6-0.5-3.9,0.5-5.5c0.6-1.1,2.8-1.6,4.4-1.6
		l89.7-3.3c6.6-0.5,13.2-0.5,19.2-0.5c2.8,0,5,1.1,7.1,2.2c1.7,1.1,2.8,3.3,2.2,5.5c0,1.6-2.2,3.8-3.9,4.4c-2.8,1.1-5.5,0.5-8.2,1.1
		c-6,0-11.5,0-17.6,0.5c-6.6,0.6-11.5,3.9-14.3,9.9c-3.9,8.8-7.2,17-10.5,25.3c-6.6,18.2-24.8,61.1-68.8,198
		c-2.2,6.6-5,12.7-7.7,19.2c-2.8,6.6-10.4,14.3-20.4,14.3c-9.9,0-17.6-5.5-13.2-17.6c19.8-53.9,76.5-213.4,76.5-213.4
		c14.9-35.2,5-33-5.5-33.6C396.3,211.7,388,211.1,379.8,210z"/>
	<path id="XMLID_45_" fill="#FFFFFF" d="M488.1,404.7c-4.4,13.8-4.9,17.1-6.6,31.3c0,3.9,0.6,7.7,1.1,11c1.6,8.2,3.3,14.3,12.1,16
		c5.5,1.6,15.4,3.3,14.9,9.3c-0.5,1.1-2.8,5-5,5c-14.9,0-27.5-0.5-39.6-8.2c-19.8-12.7-17.6-55-12.1-75.9
		c20.4-74.2,34.1-113.9,70.4-183.2c3.3-7.1,9.9-11.5,17.6-12.1c19.2-2.2,38.5-2.2,58.3-2.2c2.2,0,5,1.6,7.1,3.3
		c1.1,1.1,2.2,3.9,1.7,5.5c0,1.6-2.2,3.9-3.9,3.9c-2.8,0.5-39.6,3.3-42.4,5c-2.8,2.2-4.4,6.6-8.8,16.5c-11.5,25.9-31.9,71-52.3,132
		c-4.4,12.1-1.1,16.5,11.6,16.5c5.5-0.5,8.2-0.5,14.3-0.5c8.2,0,11.5,3.3,11.5,7.1c0,3.3-3.3,7.2-11.5,7.7c-2.2,0-19.3,0.5-22,0
		C495.8,392.6,490.9,397,488.1,404.7z"/>
	<path id="XMLID_47_" fill="#FFFFFF" d="M622.3,408c-10.5,1.7-17.1,8.2-19.8,18.2c-3.9,14.3-8.2,28-11.5,42.4
		c-2.2,9.9-8.2,15.4-19.2,15.4c-14.9-0.5-20.4-19.2-16.5-33.5c13.8-46.2,71.5-218.4,78.7-236.5c5.5-13.8,8.3-21.5,20.9-22.6
		c15.4-1.6,30.2-3.3,45.7-0.5c42.4,7.1,61.1,34.1,53.4,88C745,340.9,677.3,398.7,622.3,408z M720.2,221.6
		c-4.4-9.4-13.2-15.4-22.5-16c-6.6-0.6-16,1.1-19.3,7.7c-3.3,6-55.6,148.5-58.3,166.1C676.2,379.4,738.9,263.4,720.2,221.6z"/>
	<path id="XMLID_50_" fill="#FFFFFF" d="M813.2,375.6c10.4,0.6,20.9,0.6,31.4,0.6c8.8-0.6,14.3-0.6,18.1-2.8c5-2.8,7.7-7.7,11-17.6
		c22-60,53.4-135.3,58.9-148c1.1-1.6,2.2-3.8,3.3-5.5c3.8-4.9,9.3-7.1,14.3-6.6c16.5,0,23.1,20.4,16,38
		c-1.7,3.8-86.9,217.8-91.9,231.6c-3.3,8.8-9.9,13.2-19.2,12.1c-8.2-0.5-13.8-6-14.9-13.8c-1.7-17,12.1-42.3,15.9-62.1
		c0.6-3.3,0-6.6-2.2-8.3c-1.1-1.1-3.3-2.2-6.6-2.2c-14.9,0-29.2,0-44,0.5c-4.9,0-8.8,1.6-12.1,3.9c-2.8,2.8-5.5,6-7.1,10.4
		c-4.9,12.1-16,38.5-20.9,50.6c-5.5,13.8-17.6,20.9-24.8,20.9c-10.5,0-20.9-13.8-12.1-31.9c9.9-25.9,89.7-237.6,89.7-237.6
		c3.3-7.7,12.1-12.1,19.8-12.1c19.3,0,17.1,27.5,12.7,39.6c-2.2,5.5-41.3,113.9-44.6,126c-1.6,4.4-3.9,11-1.1,13.2
		C804.9,376.7,809.3,375.6,813.2,375.6z"/>
	<path id="XMLID_52_" fill="#FFFFFF" d="M1176.7,501.5c72.1,0,128.2-108.9,128.2-158.4c0-17.6-3.8-44-21.5-44c-45.1,0-60,50-60,71.5
		c0,6,2.2,26.9-13.8,26.9c-12.6,0-16-12.7-16-25.3c0-33.5,30.8-84.7,80.9-84.7c30.8,0,40.7,23.1,40.7,53.9
		c0,100.1-86.4,170-136.4,170c-68.2,0-101.8-56.6-101.8-121c0-86.3,62.2-172.7,67.7-181.5c1.7-2.8,2.2-4.9,2.2-6.6
		c0-2.8-1.7-4.9-5.5-7.1c-15.4-9.9-55-43.5-55-88c0-79.2,47.8-104,68.2-104c9.3,0,23.1,2.8,23.1,11.6c0,6-9.3,11.5-14.8,13.8
		c-28.6,11.6-46.8,55-46.8,86.4c0,45.7,36.3,69.3,41.2,69.3c2.2,0,3.8-1.1,6-2.8c44-40.7,122.1-118.3,200.8-118.3
		c23.1,0,32.5,14.3,32.5,36.9c0,66-96.8,116.6-183.7,116.6c-7.7,0-15.4,0-22.5-1.1c-1.7,0-3.3,0-4.4,0c-4.9,0-8.2,1.6-11.5,6.1
		c-41.8,59.4-69.9,129.8-69.9,181.5C1105.8,453.7,1128.9,501.5,1176.7,501.5z M1219.6,205.1c71,0,158.4-57.2,161.2-99
		c0-1.1,0.6-2.2,0.6-3.3c0-13.2-6.6-17.6-18.2-17.6c-59.4,0-168.3,99.6-168.3,111.1c0,9.9,11,7.1,17,8.8
		C1214.7,205.1,1217.4,205.1,1219.6,205.1z"/>
	<path id="XMLID_55_" fill="#FFFFFF" d="M1461.1,449.3c-2.2,7.1-5,13.8-8.8,20.3c-4.4,8.2-12.7,11-21.5,8.8
		c-7.2-1.1-14.3-9.9-14.3-18.7c-1.1-20.3,15.4-37.4,18.1-55c0.6-4.4-1.6-8.2-6-9.3c-8.8-2.2-9.3-1.7-47.3,2.8
		c-8.2,1.1-12.1,5.5-16,13.2c-9.9,20.9-17,39.6-25.9,61.1c-1.1,3.3-3.8,7.2-7.1,6c-4.4-1.1-2.8-9.9-1.7-13.8
		c7.2-18.7,13.2-33,20.9-58.3c1.6-5,0-7.7-5-9.9c-6.6-3.3-19.2-5-18.2-18.7c0.5-5,6-8.2,10.5-5c3.3,2.8,8.8,7.7,14.3,9.3
		c4.4,0.6,8.8-0.5,12.7-7.7c1.7-2.2,2.2-5,3.3-7.2c56.1-122.1,84.2-173.3,128.2-173.3c20.3,0,31.3,15.4,31.3,40.2
		C1528.7,253.5,1520.5,280.4,1461.1,449.3z M1447.3,372.8c1.1-2.2,2.2-4.4,2.8-7.2c16.5-48.4,27.5-78.6,44.6-127.6
		c3.3-9.4,3.3-27-9.4-27c-32.5,0-100.1,150.7-102.3,157.3c-3.3,7.7,0,12.1,8.2,12.7c12.7,0.6,31.9-0.5,44.6-1.1
		C1440.7,379.4,1444.6,377.8,1447.3,372.8z"/>
	<path id="XMLID_58_" fill="#FFFFFF" d="M1637.1,216.1l-91.9,243.1c-2.8,7.7-7.7,18.7-16,18.7c-13.2,0-24.8-6.6-21.5-23.1
		c4.4-23.1,88-243.7,91.3-250.3s7.7-9.4,17-9.4C1628.8,195.2,1642,201.2,1637.1,216.1z"/>
	<path id="XMLID_60_" fill="#FFFFFF" d="M1760.3,322.8c14.9-46.7,23.7-69.8,32.5-97.3c7.2-23.1,11.6-30.3,20.9-30.3
		c12.7,0,6.6,13.2,1.7,31.4c-6.1,22-12.7,43.5-19.8,65.5c-24.2,77.6-52.2,154-56.1,167.2c-3.9,12.1-9.9,18.2-16.5,18.2
		c-10.5,0-7.2-9.9-1.7-28.6c5-14.3,12.1-32.5,16.5-46.8c1.1-3.8,0.5-8.8-0.5-12.7l-47.9-96.8c-1.1-1.6-2.8-3.9-4.4-3.9
		c-1.7-0.5-4.4,1.1-5,2.8c-9.4,19.8-58.3,161.2-60,167.8c-2.8,8.8-8.2,18.7-17.1,18.7c-5.5,0-7.1-6.6-3.8-16
		c7.2-21.5,77-209.6,88.6-249.7c1.1-4.4,2.8-8.8,4.9-13.2c2.8-4.4,9.4-4.4,11.6,0.5c1.6,2.8,2.8,5.5,3.3,8.8
		c12.7,39.6,39.6,90.8,49,115.5C1758.1,327.7,1759.2,325,1760.3,322.8z"/>
</g>
</svg>
